<svg width="82" height="82" viewBox="0 0 82 82" fill="none" xmlns="http://www.w3.org/2000/svg">
    <rect width="82" height="82" rx="6" fill="#E1E4FF" />
    <g clip-path="url(#clip0_254_410)">
        <rect x="12" y="31" width="59" height="20" rx="10" fill="#7681FF" />
        <path
            d="M22.5682 45.1761C22.0152 45.1761 21.517 45.0777 21.0739 44.8807C20.6345 44.6799 20.286 44.3845 20.0284 43.9943C19.7746 43.6042 19.6477 43.1231 19.6477 42.5511C19.6477 42.0587 19.7386 41.6515 19.9205 41.3295C20.1023 41.0076 20.3504 40.75 20.6648 40.5568C20.9792 40.3636 21.3333 40.2178 21.7273 40.1193C22.125 40.017 22.536 39.9432 22.9602 39.8977C23.4716 39.8447 23.8864 39.7973 24.2045 39.7557C24.5227 39.7102 24.7538 39.642 24.8977 39.5511C25.0455 39.4564 25.1193 39.3106 25.1193 39.1136V39.0795C25.1193 38.6515 24.9924 38.3201 24.7386 38.0852C24.4848 37.8504 24.1193 37.733 23.642 37.733C23.1383 37.733 22.7386 37.8428 22.4432 38.0625C22.1515 38.2822 21.9545 38.5417 21.8523 38.8409L19.9318 38.5682C20.0833 38.0379 20.3333 37.5947 20.6818 37.2386C21.0303 36.8788 21.4564 36.6098 21.9602 36.4318C22.464 36.25 23.0208 36.1591 23.6307 36.1591C24.0511 36.1591 24.4697 36.2083 24.8864 36.3068C25.303 36.4053 25.6837 36.5682 26.0284 36.7955C26.3731 37.0189 26.6496 37.3239 26.858 37.7102C27.0701 38.0966 27.1761 38.5795 27.1761 39.1591V45H25.1989V43.8011H25.1307C25.0057 44.0436 24.8295 44.2708 24.6023 44.483C24.3788 44.6913 24.0966 44.8598 23.7557 44.9886C23.4186 45.1136 23.0227 45.1761 22.5682 45.1761ZM23.1023 43.6648C23.5152 43.6648 23.8731 43.5833 24.1761 43.4205C24.4792 43.2538 24.7121 43.0341 24.875 42.7614C25.0417 42.4886 25.125 42.1913 25.125 41.8693V40.8409C25.0606 40.8939 24.9508 40.9432 24.7955 40.9886C24.6439 41.0341 24.4735 41.0739 24.2841 41.108C24.0947 41.142 23.9072 41.1723 23.7216 41.1989C23.536 41.2254 23.375 41.2481 23.2386 41.267C22.9318 41.3087 22.6572 41.3769 22.4148 41.4716C22.1723 41.5663 21.9811 41.6989 21.8409 41.8693C21.7008 42.036 21.6307 42.2519 21.6307 42.517C21.6307 42.8958 21.7689 43.1818 22.0455 43.375C22.322 43.5682 22.6742 43.6648 23.1023 43.6648Z"
            fill="white" />
        <path
            d="M58.8636 43.1705C57.9924 43.1705 57.2443 42.9792 56.6193 42.5966C55.9981 42.214 55.5189 41.6856 55.1818 41.0114C54.8485 40.3333 54.6818 39.553 54.6818 38.6705C54.6818 37.7841 54.8523 37.0019 55.1932 36.3239C55.5341 35.642 56.0152 35.1117 56.6364 34.733C57.2614 34.3504 58 34.1591 58.8523 34.1591C59.5606 34.1591 60.1875 34.2898 60.733 34.5511C61.2822 34.8087 61.7197 35.1742 62.0455 35.6477C62.3712 36.1174 62.5568 36.6667 62.6023 37.2955H60.6364C60.5568 36.875 60.3674 36.5246 60.0682 36.2443C59.7727 35.9602 59.3769 35.8182 58.8807 35.8182C58.4602 35.8182 58.0909 35.9318 57.7727 36.1591C57.4545 36.3826 57.2064 36.7045 57.0284 37.125C56.8542 37.5455 56.767 38.0492 56.767 38.6364C56.767 39.2311 56.8542 39.7424 57.0284 40.1705C57.2027 40.5947 57.447 40.9223 57.7614 41.1534C58.0795 41.3807 58.4527 41.4943 58.8807 41.4943C59.1837 41.4943 59.4545 41.4375 59.6932 41.3239C59.9356 41.2064 60.1383 41.0379 60.3011 40.8182C60.464 40.5985 60.5758 40.3314 60.6364 40.017H62.6023C62.553 40.6345 62.3712 41.1818 62.0568 41.6591C61.7424 42.1326 61.3144 42.5038 60.7727 42.7727C60.2311 43.0379 59.5947 43.1705 58.8636 43.1705Z"
            fill="white" />
        <path
            d="M58.8636 56.1705C57.9924 56.1705 57.2443 55.9792 56.6193 55.5966C55.9981 55.214 55.5189 54.6856 55.1818 54.0114C54.8485 53.3333 54.6818 52.553 54.6818 51.6705C54.6818 50.7841 54.8523 50.0019 55.1932 49.3239C55.5341 48.642 56.0152 48.1117 56.6364 47.733C57.2614 47.3504 58 47.1591 58.8523 47.1591C59.5606 47.1591 60.1875 47.2898 60.733 47.5511C61.2822 47.8087 61.7197 48.1742 62.0455 48.6477C62.3712 49.1174 62.5568 49.6667 62.6023 50.2955H60.6364C60.5568 49.875 60.3674 49.5246 60.0682 49.2443C59.7727 48.9602 59.3769 48.8182 58.8807 48.8182C58.4602 48.8182 58.0909 48.9318 57.7727 49.1591C57.4545 49.3826 57.2064 49.7045 57.0284 50.125C56.8542 50.5455 56.767 51.0492 56.767 51.6364C56.767 52.2311 56.8542 52.7424 57.0284 53.1705C57.2027 53.5947 57.447 53.9223 57.7614 54.1534C58.0795 54.3807 58.4527 54.4943 58.8807 54.4943C59.1837 54.4943 59.4545 54.4375 59.6932 54.3239C59.9356 54.2064 60.1383 54.0379 60.3011 53.8182C60.464 53.5985 60.5758 53.3314 60.6364 53.017H62.6023C62.553 53.6345 62.3712 54.1818 62.0568 54.6591C61.7424 55.1326 61.3144 55.5038 60.7727 55.7727C60.2311 56.0379 59.5947 56.1705 58.8636 56.1705Z"
            fill="white" />
        <path
            d="M37.1477 40V28.3636H39.2045V32.7159H39.2898C39.3958 32.5038 39.5455 32.2784 39.7386 32.0398C39.9318 31.7973 40.1932 31.5909 40.5227 31.4205C40.8523 31.2462 41.2727 31.1591 41.7841 31.1591C42.4583 31.1591 43.0663 31.3314 43.608 31.6761C44.1534 32.017 44.5852 32.5227 44.9034 33.1932C45.2254 33.8598 45.3864 34.678 45.3864 35.6477C45.3864 36.6061 45.2292 37.4205 44.9148 38.0909C44.6004 38.7614 44.1723 39.2727 43.6307 39.625C43.089 39.9773 42.4754 40.1534 41.7898 40.1534C41.2898 40.1534 40.875 40.0701 40.5455 39.9034C40.2159 39.7367 39.9508 39.536 39.75 39.3011C39.553 39.0625 39.3996 38.8371 39.2898 38.625H39.1705V40H37.1477ZM39.1648 35.6364C39.1648 36.2008 39.2443 36.6951 39.4034 37.1193C39.5663 37.5436 39.7992 37.875 40.1023 38.1136C40.4091 38.3485 40.7803 38.4659 41.2159 38.4659C41.6705 38.4659 42.0511 38.3447 42.358 38.1023C42.6648 37.8561 42.8958 37.5208 43.0511 37.0966C43.2102 36.6686 43.2898 36.1818 43.2898 35.6364C43.2898 35.0947 43.2121 34.6136 43.0568 34.1932C42.9015 33.7727 42.6705 33.4432 42.3636 33.2045C42.0568 32.9659 41.6742 32.8466 41.2159 32.8466C40.7765 32.8466 40.4034 32.9621 40.0966 33.1932C39.7898 33.4242 39.5568 33.7481 39.3977 34.1648C39.2424 34.5814 39.1648 35.072 39.1648 35.6364Z"
            fill="white" />
        <path
            d="M37.1477 55V43.3636H39.2045V47.7159H39.2898C39.3958 47.5038 39.5455 47.2784 39.7386 47.0398C39.9318 46.7973 40.1932 46.5909 40.5227 46.4205C40.8523 46.2462 41.2727 46.1591 41.7841 46.1591C42.4583 46.1591 43.0663 46.3314 43.608 46.6761C44.1534 47.017 44.5852 47.5227 44.9034 48.1932C45.2254 48.8598 45.3864 49.678 45.3864 50.6477C45.3864 51.6061 45.2292 52.4205 44.9148 53.0909C44.6004 53.7614 44.1723 54.2727 43.6307 54.625C43.089 54.9773 42.4754 55.1534 41.7898 55.1534C41.2898 55.1534 40.875 55.0701 40.5455 54.9034C40.2159 54.7367 39.9508 54.536 39.75 54.3011C39.553 54.0625 39.3996 53.8371 39.2898 53.625H39.1705V55H37.1477ZM39.1648 50.6364C39.1648 51.2008 39.2443 51.6951 39.4034 52.1193C39.5663 52.5436 39.7992 52.875 40.1023 53.1136C40.4091 53.3485 40.7803 53.4659 41.2159 53.4659C41.6705 53.4659 42.0511 53.3447 42.358 53.1023C42.6648 52.8561 42.8958 52.5208 43.0511 52.0966C43.2102 51.6686 43.2898 51.1818 43.2898 50.6364C43.2898 50.0947 43.2121 49.6136 43.0568 49.1932C42.9015 48.7727 42.6705 48.4432 42.3636 48.2045C42.0568 47.9659 41.6742 47.8466 41.2159 47.8466C40.7765 47.8466 40.4034 47.9621 40.0966 48.1932C39.7898 48.4242 39.5568 48.7481 39.3977 49.1648C39.2424 49.5814 39.1648 50.072 39.1648 50.6364Z"
            fill="white" />
        <rect x="12" y="31" width="59" height="20" rx="10" fill="url(#paint0_linear_254_410)" />
    </g>
    <defs>
        <linearGradient id="paint0_linear_254_410" x1="42" y1="27" x2="42" y2="55.5" gradientUnits="userSpaceOnUse">
            <stop stop-color="#7681FF" />
            <stop offset="0.489812" stop-color="#7681FF" stop-opacity="0" />
            <stop offset="1" stop-color="#7681FF" />
        </linearGradient>
        <clipPath id="clip0_254_410">
            <rect width="59" height="20" fill="white" transform="translate(12 31)" />
        </clipPath>
    </defs>
</svg>